# 3ds Max Wavefront OBJ Exporter v0.99 - (c)2007 guruware
# File Created: 26.10.2021 16:19:42

#
# object indicador
#

v  9.0814 0.0000 -0.0000
v  8.5338 0.0000 -3.1060
v  8.5338 7.8470 -3.1060
v  9.0814 7.8470 -0.0000
v  6.9567 0.0000 -5.8374
v  6.9567 7.8470 -5.8374
v  4.5408 0.0000 -7.8647
v  4.5408 7.8470 -7.8647
v  1.5770 0.0000 -8.9434
v  1.5770 7.8470 -8.9434
v  -1.5769 0.0000 -8.9434
v  -1.5769 7.8470 -8.9434
v  -4.5406 0.0000 -7.8647
v  -4.5406 7.8470 -7.8647
v  -6.9566 0.0000 -5.8374
v  -6.9566 7.8470 -5.8374
v  -8.5336 0.0000 -3.1060
v  -8.5336 7.8470 -3.1060
v  -9.0814 0.0000 -0.0000
v  -9.0814 7.8470 -0.0000
v  -8.5336 0.0000 3.1060
v  -8.5336 7.8470 3.1060
v  -6.9567 0.0000 5.8374
v  -6.9567 7.8470 5.8374
v  -4.5406 0.0000 7.8647
v  -4.5406 7.8470 7.8647
v  -1.5769 0.0000 8.9434
v  -1.5769 7.8470 8.9434
v  1.5770 0.0000 8.9434
v  1.5770 7.8470 8.9434
v  4.5408 0.0000 7.8647
v  4.5408 7.8470 7.8647
v  6.9567 0.0000 5.8374
v  6.9567 7.8470 5.8374
v  8.5338 0.0000 3.1060
v  8.5338 7.8470 3.1060
v  8.5338 15.6939 -3.1060
v  9.0814 15.6939 -0.0000
v  6.9567 15.6939 -5.8374
v  4.5408 15.6939 -7.8647
v  1.5770 15.6939 -8.9434
v  -1.5769 15.6939 -8.9434
v  -4.5406 15.6939 -7.8647
v  -6.9567 15.6939 -5.8374
v  -8.5336 15.6939 -3.1060
v  -9.0814 15.6939 -0.0000
v  -8.5336 15.6939 3.1060
v  -6.9567 15.6939 5.8374
v  -4.5406 15.6939 7.8647
v  -1.5769 15.6939 8.9434
v  1.5770 15.6939 8.9434
v  4.5408 15.6939 7.8647
v  6.9567 15.6939 5.8374
v  8.5338 15.6939 3.1060
v  8.5338 23.5409 -3.1060
v  9.0814 23.5409 -0.0000
v  6.9567 23.5409 -5.8374
v  4.5408 23.5409 -7.8647
v  1.5770 23.5409 -8.9434
v  -1.5769 23.5409 -8.9434
v  -4.5406 23.5409 -7.8647
v  -6.9566 23.5409 -5.8374
v  -8.5336 23.5409 -3.1060
v  -9.0814 23.5409 -0.0000
v  -8.5336 23.5409 3.1060
v  -6.9567 23.5409 5.8374
v  -4.5406 23.5409 7.8647
v  -1.5769 23.5409 8.9434
v  1.5770 23.5409 8.9434
v  4.5408 23.5409 7.8647
v  6.9567 23.5409 5.8374
v  8.5338 23.5409 3.1060
v  8.5338 31.3879 -3.1060
v  9.0814 31.3879 -0.0000
v  6.9567 31.3879 -5.8374
v  4.5408 31.3879 -7.8647
v  1.5770 31.3879 -8.9434
v  -1.5769 31.3879 -8.9434
v  -4.5406 31.3879 -7.8647
v  -6.9566 31.3879 -5.8374
v  -8.5336 31.3879 -3.1060
v  -9.0814 31.3879 -0.0000
v  -8.5336 31.3879 3.1060
v  -6.9567 31.3879 5.8374
v  -4.5406 31.3879 7.8647
v  -1.5769 31.3879 8.9434
v  1.5770 31.3879 8.9434
v  4.5408 31.3879 7.8647
v  6.9567 31.3879 5.8374
v  8.5338 31.3879 3.1060
v  8.5338 39.2349 -3.1060
v  9.0814 39.2349 -0.0000
v  6.9567 39.2349 -5.8374
v  4.5408 39.2349 -7.8647
v  1.5770 39.2349 -8.9434
v  -1.5769 39.2349 -8.9434
v  -4.5406 39.2349 -7.8647
v  -6.9566 39.2349 -5.8374
v  -8.5336 39.2349 -3.1060
v  -9.0814 39.2349 -0.0000
v  -8.5336 39.2349 3.1060
v  -6.9567 39.2349 5.8374
v  -4.5406 39.2349 7.8647
v  -1.5769 39.2349 8.9434
v  1.5770 39.2349 8.9434
v  4.5408 39.2349 7.8647
v  6.9567 39.2349 5.8374
v  8.5338 39.2349 3.1060
# 108 vertices

vn 1.0000 0.0000 0.0000
vn 0.9397 0.0000 -0.3420
vn 0.9397 -0.0000 -0.3420
vn 1.0000 -0.0000 0.0000
vn 0.7660 0.0000 -0.6428
vn 0.7660 -0.0000 -0.6428
vn 0.5000 0.0000 -0.8660
vn 0.5000 -0.0000 -0.8660
vn 0.1736 0.0000 -0.9848
vn 0.1736 -0.0000 -0.9848
vn -0.1736 0.0000 -0.9848
vn -0.1736 -0.0000 -0.9848
vn -0.5000 0.0000 -0.8660
vn -0.5000 -0.0000 -0.8660
vn -0.7660 0.0000 -0.6428
vn -0.7660 -0.0000 -0.6428
vn -0.9397 0.0000 -0.3420
vn -0.9397 -0.0000 -0.3420
vn -1.0000 0.0000 -0.0000
vn -1.0000 -0.0000 -0.0000
vn -0.9397 0.0000 0.3420
vn -0.9397 -0.0000 0.3420
vn -0.7660 0.0000 0.6428
vn -0.7660 -0.0000 0.6428
vn -0.5000 0.0000 0.8660
vn -0.5000 -0.0000 0.8660
vn -0.1736 0.0000 0.9848
vn -0.1736 -0.0000 0.9848
vn 0.1736 0.0000 0.9848
vn 0.1736 -0.0000 0.9848
vn 0.5000 0.0000 0.8660
vn 0.5000 -0.0000 0.8660
vn 0.7660 0.0000 0.6428
vn 0.7660 -0.0000 0.6428
vn 0.9397 0.0000 0.3420
vn 0.9397 -0.0000 0.3420
# 36 vertex normals

vt 0.7500 0.0000 1.0000
vt 0.8056 0.0000 1.0000
vt 0.8056 0.2000 1.0000
vt 0.7500 0.2000 1.0000
vt 0.8611 0.0000 1.0000
vt 0.8611 0.2000 1.0000
vt 0.9167 0.0000 1.0000
vt 0.9167 0.2000 1.0000
vt 0.9722 0.0000 1.0000
vt 0.9722 0.2000 1.0000
vt 1.0278 0.0000 1.0000
vt 1.0278 0.2000 1.0000
vt 0.0278 0.0000 1.0000
vt 0.0833 0.0000 1.0000
vt 0.0833 0.2000 1.0000
vt 0.0278 0.2000 1.0000
vt 0.1389 0.0000 1.0000
vt 0.1389 0.2000 1.0000
vt 0.1944 0.0000 1.0000
vt 0.1944 0.2000 1.0000
vt 0.2500 0.0000 1.0000
vt 0.2500 0.2000 1.0000
vt 0.3056 0.0000 1.0000
vt 0.3056 0.2000 1.0000
vt 0.3611 0.0000 1.0000
vt 0.3611 0.2000 1.0000
vt 0.4167 0.0000 1.0000
vt 0.4167 0.2000 1.0000
vt 0.4722 0.0000 1.0000
vt 0.4722 0.2000 1.0000
vt 0.5278 0.0000 1.0000
vt 0.5278 0.2000 1.0000
vt 0.5833 0.0000 1.0000
vt 0.5833 0.2000 1.0000
vt 0.6389 0.0000 1.0000
vt 0.6389 0.2000 1.0000
vt 0.6944 0.0000 1.0000
vt 0.6944 0.2000 1.0000
vt 0.8056 0.4000 1.0000
vt 0.7500 0.4000 1.0000
vt 0.8611 0.4000 1.0000
vt 0.9167 0.4000 1.0000
vt 0.9722 0.4000 1.0000
vt 1.0278 0.4000 1.0000
vt 0.0833 0.4000 1.0000
vt 0.0278 0.4000 1.0000
vt 0.1389 0.4000 1.0000
vt 0.1944 0.4000 1.0000
vt 0.2500 0.4000 1.0000
vt 0.3056 0.4000 1.0000
vt 0.3611 0.4000 1.0000
vt 0.4167 0.4000 1.0000
vt 0.4722 0.4000 1.0000
vt 0.5278 0.4000 1.0000
vt 0.5833 0.4000 1.0000
vt 0.6389 0.4000 1.0000
vt 0.6944 0.4000 1.0000
vt 0.8056 0.6000 1.0000
vt 0.7500 0.6000 1.0000
vt 0.8611 0.6000 1.0000
vt 0.9167 0.6000 1.0000
vt 0.9722 0.6000 1.0000
vt 1.0278 0.6000 1.0000
vt 0.0833 0.6000 1.0000
vt 0.0278 0.6000 1.0000
vt 0.1389 0.6000 1.0000
vt 0.1944 0.6000 1.0000
vt 0.2500 0.6000 1.0000
vt 0.3056 0.6000 1.0000
vt 0.3611 0.6000 1.0000
vt 0.4167 0.6000 1.0000
vt 0.4722 0.6000 1.0000
vt 0.5278 0.6000 1.0000
vt 0.5833 0.6000 1.0000
vt 0.6389 0.6000 1.0000
vt 0.6944 0.6000 1.0000
vt 0.8056 0.8000 1.0000
vt 0.7500 0.8000 1.0000
vt 0.8611 0.8000 1.0000
vt 0.9167 0.8000 1.0000
vt 0.9722 0.8000 1.0000
vt 1.0278 0.8000 1.0000
vt 0.0833 0.8000 1.0000
vt 0.0278 0.8000 1.0000
vt 0.1389 0.8000 1.0000
vt 0.1944 0.8000 1.0000
vt 0.2500 0.8000 1.0000
vt 0.3056 0.8000 1.0000
vt 0.3611 0.8000 1.0000
vt 0.4167 0.8000 1.0000
vt 0.4722 0.8000 1.0000
vt 0.5278 0.8000 1.0000
vt 0.5833 0.8000 1.0000
vt 0.6389 0.8000 1.0000
vt 0.6944 0.8000 1.0000
vt 0.8056 1.0000 1.0000
vt 0.7500 1.0000 1.0000
vt 0.8611 1.0000 1.0000
vt 0.9167 1.0000 1.0000
vt 0.9722 1.0000 1.0000
vt 1.0278 1.0000 1.0000
vt 0.0833 1.0000 1.0000
vt 0.0278 1.0000 1.0000
vt 0.1389 1.0000 1.0000
vt 0.1944 1.0000 1.0000
vt 0.2500 1.0000 1.0000
vt 0.3056 1.0000 1.0000
vt 0.3611 1.0000 1.0000
vt 0.4167 1.0000 1.0000
vt 0.4722 1.0000 1.0000
vt 0.5278 1.0000 1.0000
vt 0.5833 1.0000 1.0000
vt 0.6389 1.0000 1.0000
vt 0.6944 1.0000 1.0000
# 114 texture coords

o indicador
g indicador
s 1
f 1/1/1 2/2/2 3/3/3 4/4/4 
f 2/2/2 5/5/5 6/6/6 3/3/3 
f 5/5/5 7/7/7 8/8/8 6/6/6 
f 7/7/7 9/9/9 10/10/10 8/8/8 
f 9/9/9 11/11/11 12/12/12 10/10/10 
f 11/13/11 13/14/13 14/15/14 12/16/12 
f 13/14/13 15/17/15 16/18/16 14/15/14 
f 15/17/15 17/19/17 18/20/18 16/18/16 
f 17/19/17 19/21/19 20/22/20 18/20/18 
f 19/21/19 21/23/21 22/24/22 20/22/20 
f 21/23/21 23/25/23 24/26/24 22/24/22 
f 23/25/23 25/27/25 26/28/26 24/26/24 
f 25/27/25 27/29/27 28/30/28 26/28/26 
f 27/29/27 29/31/29 30/32/30 28/30/28 
f 29/31/29 31/33/31 32/34/32 30/32/30 
f 31/33/31 33/35/33 34/36/34 32/34/32 
f 33/35/33 35/37/35 36/38/36 34/36/34 
f 35/37/35 1/1/1 4/4/4 36/38/36 
f 4/4/4 3/3/3 37/39/3 38/40/1 
f 3/3/3 6/6/6 39/41/5 37/39/3 
f 6/6/6 8/8/8 40/42/7 39/41/5 
f 8/8/8 10/10/10 41/43/10 40/42/7 
f 10/10/10 12/12/12 42/44/11 41/43/10 
f 12/16/12 14/15/14 43/45/14 42/46/11 
f 14/15/14 16/18/16 44/47/15 43/45/14 
f 16/18/16 18/20/18 45/48/17 44/47/15 
f 18/20/18 20/22/20 46/49/20 45/48/17 
f 20/22/20 22/24/22 47/50/21 46/49/20 
f 22/24/22 24/26/24 48/51/23 47/50/21 
f 24/26/24 26/28/26 49/52/26 48/51/23 
f 26/28/26 28/30/28 50/53/28 49/52/26 
f 28/30/28 30/32/30 51/54/29 50/53/28 
f 30/32/30 32/34/32 52/55/32 51/54/29 
f 32/34/32 34/36/34 53/56/34 52/55/32 
f 34/36/34 36/38/36 54/57/35 53/56/34 
f 36/38/36 4/4/4 38/40/1 54/57/35 
f 38/40/1 37/39/3 55/58/2 56/59/1 
f 37/39/3 39/41/5 57/60/5 55/58/2 
f 39/41/5 40/42/7 58/61/7 57/60/5 
f 40/42/7 41/43/10 59/62/9 58/61/7 
f 41/43/10 42/44/11 60/63/11 59/62/9 
f 42/46/11 43/45/14 61/64/13 60/65/11 
f 43/45/14 44/47/15 62/66/15 61/64/13 
f 44/47/15 45/48/17 63/67/17 62/66/15 
f 45/48/17 46/49/20 64/68/19 63/67/17 
f 46/49/20 47/50/21 65/69/21 64/68/19 
f 47/50/21 48/51/23 66/70/23 65/69/21 
f 48/51/23 49/52/26 67/71/25 66/70/23 
f 49/52/26 50/53/28 68/72/27 67/71/25 
f 50/53/28 51/54/29 69/73/29 68/72/27 
f 51/54/29 52/55/32 70/74/31 69/73/29 
f 52/55/32 53/56/34 71/75/33 70/74/31 
f 53/56/34 54/57/35 72/76/35 71/75/33 
f 54/57/35 38/40/1 56/59/1 72/76/35 
f 56/59/1 55/58/2 73/77/2 74/78/1 
f 55/58/2 57/60/5 75/79/5 73/77/2 
f 57/60/5 58/61/7 76/80/7 75/79/5 
f 58/61/7 59/62/9 77/81/9 76/80/7 
f 59/62/9 60/63/11 78/82/11 77/81/9 
f 60/65/11 61/64/13 79/83/13 78/84/11 
f 61/64/13 62/66/15 80/85/15 79/83/13 
f 62/66/15 63/67/17 81/86/17 80/85/15 
f 63/67/17 64/68/19 82/87/19 81/86/17 
f 64/68/19 65/69/21 83/88/21 82/87/19 
f 65/69/21 66/70/23 84/89/23 83/88/21 
f 66/70/23 67/71/25 85/90/25 84/89/23 
f 67/71/25 68/72/27 86/91/27 85/90/25 
f 68/72/27 69/73/29 87/92/29 86/91/27 
f 69/73/29 70/74/31 88/93/31 87/92/29 
f 70/74/31 71/75/33 89/94/33 88/93/31 
f 71/75/33 72/76/35 90/95/35 89/94/33 
f 72/76/35 56/59/1 74/78/1 90/95/35 
f 74/78/1 73/77/2 91/96/2 92/97/1 
f 73/77/2 75/79/5 93/98/5 91/96/2 
f 75/79/5 76/80/7 94/99/7 93/98/5 
f 76/80/7 77/81/9 95/100/9 94/99/7 
f 77/81/9 78/82/11 96/101/11 95/100/9 
f 78/84/11 79/83/13 97/102/13 96/103/11 
f 79/83/13 80/85/15 98/104/15 97/102/13 
f 80/85/15 81/86/17 99/105/17 98/104/15 
f 81/86/17 82/87/19 100/106/19 99/105/17 
f 82/87/19 83/88/21 101/107/21 100/106/19 
f 83/88/21 84/89/23 102/108/23 101/107/21 
f 84/89/23 85/90/25 103/109/25 102/108/23 
f 85/90/25 86/91/27 104/110/27 103/109/25 
f 86/91/27 87/92/29 105/111/29 104/110/27 
f 87/92/29 88/93/31 106/112/31 105/111/29 
f 88/93/31 89/94/33 107/113/33 106/112/31 
f 89/94/33 90/95/35 108/114/35 107/113/33 
f 90/95/35 74/78/1 92/97/1 108/114/35 
# 90 polygons

